<?xml version="1.0" encoding="UTF-8" standalone="no"?>
<!-- Generator: Adobe Illustrator 27.5.0, SVG Export Plug-In . SVG Version: 6.00 Build 0)  -->

<svg
   version="1.1"
   id="Layer_1"
   x="0px"
   y="0px"
   viewBox="0 0 131.08389 221.68135"
   xml:space="preserve"
   width="131.08389"
   height="221.68135"
   xmlns="http://www.w3.org/2000/svg"
   xmlns:svg="http://www.w3.org/2000/svg"><defs
   id="defs214" />
<g
   id="g214"
   transform="translate(-148.2131,-10.528)">
	
	
	<g
   id="g117">
		<g
   id="g44"
   style="fill:#006cff;fill-opacity:1"
   transform="matrix(0.88892742,0,0,0.8388537,31.022238,1.6965482)">
			
				<radialGradient
   id="SVGID_1_"
   cx="-566.70508"
   cy="-2156.5696"
   r="115.4686"
   gradientTransform="rotate(180,-144.5221,-997.21)"
   gradientUnits="userSpaceOnUse">
				<stop
   offset="0.3383"
   style="stop-color:#000000"
   id="stop21" />
				<stop
   offset="0.415"
   style="stop-color:#050505"
   id="stop22" />
				<stop
   offset="0.5054"
   style="stop-color:#131313"
   id="stop23" />
				<stop
   offset="0.6028"
   style="stop-color:#2B2B2B"
   id="stop24" />
				<stop
   offset="0.7051"
   style="stop-color:#4C4C4C"
   id="stop25" />
				<stop
   offset="0.8113"
   style="stop-color:#777777"
   id="stop26" />
				<stop
   offset="0.9191"
   style="stop-color:#AAAAAA"
   id="stop27" />
				<stop
   offset="1"
   style="stop-color:#D6D6D6"
   id="stop28" />
			</radialGradient>
			<path
   style="fill:#006cff;fill-opacity:1"
   d="m 212.364,127.28 c 4.721,0 8.561,-3.841 8.561,-8.561 0,-4.721 -3.84,-8.561 -8.561,-8.561 -4.721,0 -8.561,3.84 -8.561,8.561 0,4.721 3.84,8.561 8.561,8.561 z m 0,-11.874 c 1.827,0 3.313,1.486 3.313,3.313 0,1.827 -1.486,3.313 -3.313,3.313 -1.827,0 -3.313,-1.486 -3.313,-3.313 0,-1.827 1.486,-3.313 3.313,-3.313 z"
   id="path28" />
			
				<radialGradient
   id="SVGID_00000166642115577824526320000006090418487395109813_"
   cx="-566.70532"
   cy="-2156.5696"
   r="115.4688"
   gradientTransform="rotate(180,-144.5221,-997.21)"
   gradientUnits="userSpaceOnUse">
				<stop
   offset="0.3383"
   style="stop-color:#000000"
   id="stop29" />
				<stop
   offset="0.415"
   style="stop-color:#050505"
   id="stop30" />
				<stop
   offset="0.5054"
   style="stop-color:#131313"
   id="stop31" />
				<stop
   offset="0.6028"
   style="stop-color:#2B2B2B"
   id="stop32" />
				<stop
   offset="0.7051"
   style="stop-color:#4C4C4C"
   id="stop33" />
				<stop
   offset="0.8113"
   style="stop-color:#777777"
   id="stop34" />
				<stop
   offset="0.9191"
   style="stop-color:#AAAAAA"
   id="stop35" />
				<stop
   offset="1"
   style="stop-color:#D6D6D6"
   id="stop36" />
			</radialGradient>
			<path
   style="fill:#006cff;fill-opacity:1"
   d="m 212.364,133.886 c 8.363,0 15.167,-6.804 15.167,-15.167 0,-8.363 -6.804,-15.167 -15.167,-15.167 -8.363,0 -15.167,6.804 -15.167,15.167 0,8.363 6.803,15.167 15.167,15.167 z m 0,-27.71 c 6.916,0 12.543,5.627 12.543,12.543 0,6.916 -5.627,12.543 -12.543,12.543 -6.916,0 -12.543,-5.627 -12.543,-12.543 -0.001,-6.916 5.626,-12.543 12.543,-12.543 z"
   id="path36" />
			
				<radialGradient
   id="SVGID_00000114758535909045875340000004357057833728764037_"
   cx="-566.70532"
   cy="-2156.5696"
   r="115.4691"
   gradientTransform="rotate(180,-144.5221,-997.21)"
   gradientUnits="userSpaceOnUse">
				<stop
   offset="0.3383"
   style="stop-color:#000000"
   id="stop37" />
				<stop
   offset="0.415"
   style="stop-color:#050505"
   id="stop38" />
				<stop
   offset="0.5054"
   style="stop-color:#131313"
   id="stop39" />
				<stop
   offset="0.6028"
   style="stop-color:#2B2B2B"
   id="stop40" />
				<stop
   offset="0.7051"
   style="stop-color:#4C4C4C"
   id="stop41" />
				<stop
   offset="0.8113"
   style="stop-color:#777777"
   id="stop42" />
				<stop
   offset="0.9191"
   style="stop-color:#AAAAAA"
   id="stop43" />
				<stop
   offset="1"
   style="stop-color:#D6D6D6"
   id="stop44" />
			</radialGradient>
			<path
   style="fill:#006cff;fill-opacity:1"
   d="m 187.227,117.003 c -0.038,0.568 -0.058,1.146 -0.058,1.716 v 0.065 l 2.321,-0.008 c 0.001,0.525 0.026,1.044 0.062,1.561 l -2.322,0.162 c 0.04,0.571 0.1,1.146 0.178,1.71 l 2.305,-0.32 c 0.072,0.518 0.159,1.032 0.265,1.538 l -2.275,0.476 c 0.117,0.559 0.255,1.121 0.41,1.671 l 2.243,-0.633 c 0.142,0.503 0.298,0.999 0.473,1.487 l -2.192,0.785 c 0.192,0.536 0.406,1.074 0.635,1.597 l 2.136,-0.935 c 0.209,0.477 0.435,0.945 0.676,1.405 l -2.069,1.08 c 0.264,0.506 0.549,1.009 0.847,1.496 l 1.987,-1.217 c 0.272,0.444 0.563,0.875 0.864,1.299 l -1.905,1.353 c 0.33,0.465 0.681,0.925 1.042,1.367 l 1.806,-1.476 c 0.33,0.403 0.675,0.792 1.031,1.171 l -1.704,1.598 c 0.391,0.416 0.8,0.825 1.218,1.213 l 1.591,-1.709 c 0.381,0.355 0.773,0.697 1.177,1.025 l -1.471,1.812 c 0.444,0.36 0.905,0.709 1.372,1.038 l 1.345,-1.91 c 0.425,0.3 0.857,0.59 1.303,0.861 l -1.208,1.991 c 0.489,0.297 0.994,0.58 1.501,0.842 l 1.072,-2.074 c 0.462,0.239 0.931,0.465 1.41,0.673 l -0.925,2.138 c 0.525,0.227 1.065,0.439 1.604,0.629 l 0.776,-2.197 c 0.489,0.173 0.985,0.328 1.489,0.468 l -0.623,2.245 c 0.55,0.153 1.113,0.288 1.673,0.403 l 0.466,-2.275 c 0.507,0.104 1.022,0.185 1.54,0.255 l -0.309,2.307 c 0.565,0.076 1.14,0.133 1.71,0.17 l 0.152,-2.321 c 0.502,0.033 1.007,0.056 1.517,0.056 0.015,0 0.029,-0.001 0.043,-0.001 l 0.004,2.321 c 0.572,-0.001 1.149,-0.022 1.717,-0.061 l -0.161,-2.322 c 0.522,-0.036 1.04,-0.09 1.553,-0.161 l 0.318,2.305 c 0.566,-0.078 1.136,-0.177 1.695,-0.293 l -0.475,-2.275 c 0.512,-0.107 1.016,-0.236 1.514,-0.377 l 0.632,2.243 c 0.55,-0.155 1.102,-0.331 1.64,-0.523 l -0.784,-2.192 c 0.491,-0.176 0.973,-0.369 1.448,-0.577 l 0.933,2.136 c 0.522,-0.228 1.044,-0.478 1.55,-0.742 l -1.078,-2.069 c 0.462,-0.241 0.916,-0.493 1.359,-0.764 l 1.215,1.988 c 0.486,-0.298 0.969,-0.616 1.435,-0.946 l -1.351,-1.906 c 0.425,-0.301 0.841,-0.614 1.243,-0.943 l 1.475,1.807 c 0.442,-0.361 0.877,-0.742 1.294,-1.132 l -1.597,-1.705 c 0.38,-0.356 0.748,-0.724 1.103,-1.105 l 1.709,1.592 c 0.389,-0.417 0.769,-0.854 1.129,-1.297 l -1.811,-1.471 c 0.328,-0.404 0.64,-0.82 0.941,-1.246 l 1.909,1.346 c 0.329,-0.467 0.646,-0.951 0.943,-1.439 l -1.99,-1.209 c 0.27,-0.444 0.52,-0.901 0.76,-1.364 l 2.073,1.073 c 0.263,-0.508 0.511,-1.031 0.739,-1.556 l -2.138,-0.927 c 0.207,-0.477 0.398,-0.962 0.573,-1.454 l 2.196,0.777 c 0.19,-0.538 0.365,-1.09 0.518,-1.641 l -2.245,-0.624 c 0.139,-0.499 0.268,-1.003 0.374,-1.515 l 2.275,0.467 c 0.115,-0.559 0.212,-1.129 0.288,-1.696 l -2.307,-0.311 c 0.069,-0.513 0.122,-1.03 0.157,-1.553 l 2.321,0.154 c 0.037,-0.557 0.056,-1.124 0.056,-1.685 v -0.03 h -2.321 c -0.001,-0.525 -0.025,-1.044 -0.061,-1.56 l 2.322,-0.16 c -0.039,-0.57 -0.098,-1.146 -0.176,-1.71 l -2.305,0.317 c -0.072,-0.518 -0.156,-1.032 -0.262,-1.539 l 2.275,-0.473 c -0.116,-0.559 -0.254,-1.121 -0.408,-1.672 l -2.243,0.63 c -0.142,-0.503 -0.297,-0.999 -0.472,-1.488 l 2.193,-0.783 c -0.192,-0.537 -0.405,-1.075 -0.633,-1.598 l -2.137,0.932 c -0.209,-0.478 -0.434,-0.946 -0.674,-1.406 l 2.07,-1.077 c -0.263,-0.506 -0.548,-1.01 -0.845,-1.497 l -1.989,1.214 c -0.272,-0.445 -0.563,-0.876 -0.863,-1.3 l 1.906,-1.35 c -0.329,-0.465 -0.68,-0.926 -1.041,-1.368 l -1.808,1.475 c -0.329,-0.403 -0.674,-0.793 -1.029,-1.173 l 1.706,-1.596 c -0.39,-0.417 -0.799,-0.826 -1.217,-1.215 l -1.593,1.708 c -0.38,-0.355 -0.771,-0.699 -1.175,-1.027 l 1.473,-1.81 c -0.443,-0.36 -0.904,-0.71 -1.371,-1.04 l -1.347,1.908 c -0.425,-0.3 -0.856,-0.591 -1.302,-0.863 l 1.21,-1.99 c -0.488,-0.297 -0.993,-0.581 -1.5,-0.844 l -1.074,2.072 c -0.461,-0.239 -0.93,-0.465 -1.409,-0.674 l 0.928,-2.138 c -0.525,-0.228 -1.064,-0.44 -1.603,-0.631 l -0.778,2.195 c -0.488,-0.174 -0.985,-0.329 -1.488,-0.47 l 0.626,-2.245 c -0.55,-0.153 -1.113,-0.289 -1.672,-0.405 l -0.469,2.275 c -0.507,-0.105 -1.021,-0.187 -1.539,-0.258 l 0.313,-2.306 c -0.564,-0.076 -1.14,-0.134 -1.71,-0.173 l -0.155,2.321 c -0.512,-0.034 -1.026,-0.058 -1.546,-0.058 -0.005,0 -0.01,0 -0.014,0 l -0.001,-2.32 c -0.571,0 -1.149,0.02 -1.717,0.059 l 0.158,2.321 c -0.523,0.036 -1.04,0.089 -1.553,0.159 l -0.315,-2.306 c -0.566,0.077 -1.136,0.175 -1.695,0.291 l 0.472,2.275 c -0.512,0.107 -1.016,0.235 -1.515,0.376 l -0.628,-2.244 c -0.55,0.154 -1.102,0.329 -1.641,0.521 l 0.781,2.194 c -0.491,0.175 -0.974,0.367 -1.449,0.575 l -0.93,-2.137 c -0.523,0.228 -1.045,0.477 -1.551,0.74 l 1.076,2.071 c -0.462,0.241 -0.918,0.492 -1.361,0.762 l -1.213,-1.989 c -0.487,0.297 -0.97,0.614 -1.436,0.944 l 1.349,1.907 c -0.425,0.301 -0.841,0.613 -1.244,0.941 l -1.473,-1.809 c -0.442,0.36 -0.878,0.741 -1.295,1.13 l 1.595,1.707 c -0.38,0.355 -0.748,0.723 -1.104,1.104 l -1.707,-1.595 c -0.39,0.417 -0.77,0.853 -1.131,1.296 l 1.809,1.473 c -0.329,0.403 -0.641,0.82 -0.942,1.245 l -1.907,-1.349 c -0.33,0.466 -0.648,0.95 -0.945,1.438 l 1.989,1.212 c -0.271,0.444 -0.522,0.9 -0.763,1.363 l -2.071,-1.075 c -0.264,0.508 -0.513,1.031 -0.74,1.555 l 2.137,0.929 c -0.208,0.476 -0.4,0.961 -0.575,1.453 l -2.195,-0.779 c -0.191,0.539 -0.366,1.091 -0.52,1.64 l 2.244,0.627 c -0.14,0.499 -0.269,1.003 -0.375,1.515 l -2.275,-0.47 c -0.116,0.559 -0.213,1.13 -0.29,1.695 l 2.306,0.314 c -0.07,0.512 -0.123,1.03 -0.158,1.553 z m 25.137,-17.222 c 10.443,0 18.938,8.496 18.938,18.938 0,10.443 -8.496,18.938 -18.938,18.938 -10.443,0 -18.938,-8.496 -18.938,-18.938 -10e-4,-10.442 8.495,-18.938 18.938,-18.938 z"
   id="path44" />
		</g>
		
		<g
   id="g76"
   style="fill:#006cff;fill-opacity:1"
   transform="matrix(0.88892742,0,0,0.8388537,31.022238,1.6965482)">
			
				<radialGradient
   id="SVGID_00000011751781295131102010000018260913715783507356_"
   cx="-566.70563"
   cy="-2156.5696"
   r="115.4695"
   gradientTransform="rotate(180,-144.5221,-997.21)"
   gradientUnits="userSpaceOnUse">
				<stop
   offset="0.3383"
   style="stop-color:#000000"
   id="stop61" />
				<stop
   offset="0.415"
   style="stop-color:#050505"
   id="stop62" />
				<stop
   offset="0.5054"
   style="stop-color:#131313"
   id="stop63" />
				<stop
   offset="0.6028"
   style="stop-color:#2B2B2B"
   id="stop64" />
				<stop
   offset="0.7051"
   style="stop-color:#4C4C4C"
   id="stop65" />
				<stop
   offset="0.8113"
   style="stop-color:#777777"
   id="stop66" />
				<stop
   offset="0.9191"
   style="stop-color:#AAAAAA"
   id="stop67" />
				<stop
   offset="1"
   style="stop-color:#D6D6D6"
   id="stop68" />
			</radialGradient>
			<path
   style="fill:#006cff;fill-opacity:1"
   d="m 159.823,141.905 c 7.64,0 13.836,-6.196 13.836,-13.836 0,-7.646 -6.197,-13.843 -13.836,-13.843 -7.646,0 -13.843,6.196 -13.843,13.843 0,7.639 6.197,13.836 13.843,13.836 z m 0.002,-24.775 c 6.039,0 10.93,4.902 10.93,10.941 0,6.039 -4.891,10.93 -10.93,10.93 -6.049,0 -10.941,-4.891 -10.941,-10.93 0.001,-6.039 4.892,-10.941 10.941,-10.941 z"
   id="path68" />
			
				<radialGradient
   id="SVGID_00000140712967129826990020000013755343794999028099_"
   cx="-566.7052"
   cy="-2156.5696"
   r="115.4687"
   gradientTransform="rotate(180,-144.5221,-997.21)"
   gradientUnits="userSpaceOnUse">
				<stop
   offset="0.3383"
   style="stop-color:#000000"
   id="stop69" />
				<stop
   offset="0.415"
   style="stop-color:#050505"
   id="stop70" />
				<stop
   offset="0.5054"
   style="stop-color:#131313"
   id="stop71" />
				<stop
   offset="0.6028"
   style="stop-color:#2B2B2B"
   id="stop72" />
				<stop
   offset="0.7051"
   style="stop-color:#4C4C4C"
   id="stop73" />
				<stop
   offset="0.8113"
   style="stop-color:#777777"
   id="stop74" />
				<stop
   offset="0.9191"
   style="stop-color:#AAAAAA"
   id="stop75" />
				<stop
   offset="1"
   style="stop-color:#D6D6D6"
   id="stop76" />
			</radialGradient>
			<path
   style="fill:#006cff;fill-opacity:1"
   d="m 142.962,128.103 c 0,0.83 0.065,1.648 0.183,2.449 l -2.867,0.424 c 0.053,0.371 0.124,0.742 0.194,1.107 l 2.837,-0.583 c 0.171,0.807 0.394,1.59 0.677,2.355 l -2.726,0.995 c 0.129,0.353 0.271,0.701 0.418,1.042 l 2.661,-1.148 c 0.33,0.754 0.706,1.478 1.136,2.172 l -2.467,1.525 c 0.194,0.318 0.4,0.636 0.618,0.942 l 2.384,-1.666 c 0.465,0.671 0.977,1.301 1.548,1.896 l -2.119,1.996 c 0.253,0.271 0.524,0.542 0.795,0.801 l 2.002,-2.113 c 0.595,0.571 1.225,1.089 1.896,1.554 l -1.678,2.378 c 0.306,0.212 0.624,0.424 0.942,0.624 l 1.536,-2.473 c 0.689,0.436 1.413,0.812 2.167,1.142 l -1.16,2.667 c 0.347,0.147 0.701,0.288 1.048,0.418 l 1.007,-2.726 c 0.759,0.283 1.548,0.512 2.355,0.683 l -0.595,2.837 c 0.365,0.077 0.742,0.147 1.113,0.2 l 0.43,-2.867 c 0.795,0.118 1.613,0.182 2.443,0.188 l -0.012,2.896 h 0.094 c 0.341,0 0.689,-0.006 1.03,-0.023 l -0.153,-2.896 c 0.83,-0.041 1.643,-0.147 2.437,-0.306 l 0.565,2.849 c 0.371,-0.077 0.736,-0.159 1.101,-0.253 l -0.73,-2.808 c 0.795,-0.206 1.572,-0.477 2.32,-0.789 l 1.13,2.667 c 0.347,-0.141 0.689,-0.3 1.024,-0.465 l -1.283,-2.608 c 0.736,-0.359 1.442,-0.777 2.113,-1.236 l 1.648,2.39 c 0.306,-0.212 0.612,-0.436 0.907,-0.665 l -1.784,-2.296 c 0.648,-0.5 1.26,-1.054 1.825,-1.643 l 2.096,2.013 c 0.259,-0.265 0.512,-0.548 0.754,-0.83 l -2.208,-1.896 c 0.542,-0.618 1.024,-1.277 1.46,-1.972 l 2.455,1.554 c 0.2,-0.318 0.394,-0.642 0.577,-0.971 l -2.543,-1.407 c 0.4,-0.712 0.748,-1.454 1.03,-2.225 l 2.72,1.024 c 0.13,-0.353 0.253,-0.712 0.365,-1.071 l -2.767,-0.865 c 0.241,-0.771 0.43,-1.572 0.559,-2.384 l 2.861,0.453 c 0.059,-0.371 0.106,-0.748 0.147,-1.118 l -2.891,-0.289 c 0.059,-0.553 0.088,-1.113 0.088,-1.684 0,-0.259 -0.006,-0.512 -0.024,-0.765 l 2.902,-0.13 c -0.018,-0.377 -0.047,-0.754 -0.082,-1.124 l -2.885,0.294 c -0.082,-0.824 -0.23,-1.631 -0.424,-2.42 l 2.808,-0.706 c -0.088,-0.365 -0.194,-0.73 -0.306,-1.083 l -2.767,0.871 c -0.247,-0.783 -0.548,-1.548 -0.907,-2.278 l 2.614,-1.266 c -0.165,-0.336 -0.341,-0.671 -0.518,-1.001 l -2.543,1.419 c -0.389,-0.718 -0.842,-1.401 -1.342,-2.049 l 2.308,-1.772 c -0.23,-0.294 -0.465,-0.589 -0.712,-0.871 l -2.202,1.896 c -0.536,-0.624 -1.113,-1.207 -1.731,-1.737 l 1.907,-2.196 c -0.283,-0.241 -0.577,-0.483 -0.871,-0.712 l -1.778,2.302 c -0.648,-0.506 -1.331,-0.96 -2.043,-1.366 l 1.425,-2.526 c -0.324,-0.183 -0.659,-0.359 -0.995,-0.524 l -1.277,2.608 c -0.73,-0.365 -1.49,-0.671 -2.278,-0.924 l 0.883,-2.761 c -0.353,-0.112 -0.718,-0.218 -1.083,-0.312 l -0.718,2.802 c -0.783,-0.2 -1.59,-0.347 -2.414,-0.43 l 0.306,-2.885 c -0.371,-0.041 -0.748,-0.071 -1.124,-0.088 l -0.141,2.896 c -0.277,-0.018 -0.559,-0.024 -0.842,-0.024 -0.542,0 -1.077,0.024 -1.607,0.082 l -0.277,-2.891 c -0.371,0.035 -0.748,0.082 -1.118,0.141 l 0.441,2.861 c -0.818,0.124 -1.619,0.312 -2.396,0.553 l -0.848,-2.779 c -0.359,0.112 -0.718,0.236 -1.066,0.365 l 1.007,2.72 c -0.771,0.288 -1.519,0.63 -2.231,1.018 l -1.395,-2.543 c -0.324,0.177 -0.654,0.371 -0.965,0.565 l 1.536,2.467 c -0.695,0.43 -1.354,0.912 -1.972,1.448 l -1.884,-2.219 c -0.288,0.241 -0.565,0.494 -0.836,0.754 l 2.002,2.108 c -0.595,0.559 -1.148,1.166 -1.648,1.813 l -2.29,-1.796 c -0.23,0.294 -0.453,0.595 -0.671,0.901 l 2.39,1.666 c -0.477,0.671 -0.895,1.372 -1.254,2.108 l -2.602,-1.301 c -0.171,0.335 -0.33,0.683 -0.477,1.024 l 2.667,1.148 c -0.324,0.748 -0.589,1.519 -0.801,2.319 l -2.802,-0.742 c -0.1,0.359 -0.183,0.73 -0.259,1.095 l 2.837,0.577 c -0.159,0.795 -0.265,1.607 -0.312,2.437 l -2.896,-0.165 c -0.018,0.371 -0.029,0.748 -0.029,1.113 v 0.059 z m 16.861,-15.799 c 8.693,0 15.764,7.071 15.764,15.764 0,8.693 -7.071,15.764 -15.764,15.764 -8.693,0 -15.764,-7.071 -15.764,-15.764 0,-8.693 7.071,-15.764 15.764,-15.764 z"
   id="path76" />
		</g>
		<g
   id="g116"
   style="fill:#006cff;fill-opacity:1"
   transform="matrix(0.88892742,0,0,0.8388537,31.022238,1.6965482)">
			
				<radialGradient
   id="SVGID_00000115505163438015946430000008671009900754016909_"
   cx="322.84869"
   cy="110.5102"
   r="183.873"
   gradientUnits="userSpaceOnUse">
				<stop
   offset="0.3383"
   style="stop-color:#000000"
   id="stop77" />
				<stop
   offset="0.415"
   style="stop-color:#050505"
   id="stop78" />
				<stop
   offset="0.5054"
   style="stop-color:#131313"
   id="stop79" />
				<stop
   offset="0.6028"
   style="stop-color:#2B2B2B"
   id="stop80" />
				<stop
   offset="0.7051"
   style="stop-color:#4C4C4C"
   id="stop81" />
				<stop
   offset="0.8113"
   style="stop-color:#777777"
   id="stop82" />
				<stop
   offset="0.9191"
   style="stop-color:#AAAAAA"
   id="stop83" />
				<stop
   offset="1"
   style="stop-color:#D6D6D6"
   id="stop84" />
			</radialGradient>
			<path
   style="fill:#006cff;fill-opacity:1"
   d="m 179.961,169.242 c -10.172,0 -18.448,8.276 -18.448,18.449 0,10.173 8.276,18.449 18.448,18.449 10.173,0 18.449,-8.276 18.449,-18.449 0,-10.173 -8.276,-18.449 -18.449,-18.449 z m 0,35.858 c -9.599,0 -17.409,-7.81 -17.409,-17.409 0,-9.6 7.81,-17.41 17.409,-17.41 9.6,0 17.41,7.81 17.41,17.41 0,9.599 -7.81,17.409 -17.41,17.409 z"
   id="path84" />
			
				<radialGradient
   id="SVGID_00000172415395111682992360000017146716771879092373_"
   cx="322.84909"
   cy="110.5105"
   r="183.873"
   gradientUnits="userSpaceOnUse">
				<stop
   offset="0.3383"
   style="stop-color:#000000"
   id="stop85" />
				<stop
   offset="0.415"
   style="stop-color:#050505"
   id="stop86" />
				<stop
   offset="0.5054"
   style="stop-color:#131313"
   id="stop87" />
				<stop
   offset="0.6028"
   style="stop-color:#2B2B2B"
   id="stop88" />
				<stop
   offset="0.7051"
   style="stop-color:#4C4C4C"
   id="stop89" />
				<stop
   offset="0.8113"
   style="stop-color:#777777"
   id="stop90" />
				<stop
   offset="0.9191"
   style="stop-color:#AAAAAA"
   id="stop91" />
				<stop
   offset="1"
   style="stop-color:#D6D6D6"
   id="stop92" />
			</radialGradient>
			<path
   style="fill:#006cff;fill-opacity:1"
   d="m 179.961,171.944 c -8.682,0 -15.746,7.064 -15.746,15.746 0,8.682 7.064,15.746 15.746,15.746 8.683,0 15.746,-7.064 15.746,-15.746 0.001,-8.682 -7.063,-15.746 -15.746,-15.746 z m 0,30.453 c -8.109,0 -14.707,-6.597 -14.707,-14.707 0,-8.11 6.597,-14.707 14.707,-14.707 8.11,0 14.707,6.597 14.707,14.707 0,8.11 -6.597,14.707 -14.707,14.707 z"
   id="path92" />
			
				<radialGradient
   id="SVGID_00000017480742369752626080000009474960918474136460_"
   cx="322.84921"
   cy="110.5106"
   r="183.8736"
   gradientUnits="userSpaceOnUse">
				<stop
   offset="0.3383"
   style="stop-color:#000000"
   id="stop93" />
				<stop
   offset="0.415"
   style="stop-color:#050505"
   id="stop94" />
				<stop
   offset="0.5054"
   style="stop-color:#131313"
   id="stop95" />
				<stop
   offset="0.6028"
   style="stop-color:#2B2B2B"
   id="stop96" />
				<stop
   offset="0.7051"
   style="stop-color:#4C4C4C"
   id="stop97" />
				<stop
   offset="0.8113"
   style="stop-color:#777777"
   id="stop98" />
				<stop
   offset="0.9191"
   style="stop-color:#AAAAAA"
   id="stop99" />
				<stop
   offset="1"
   style="stop-color:#D6D6D6"
   id="stop100" />
			</radialGradient>
			<path
   style="fill:#006cff;fill-opacity:1"
   d="m 179.961,177.349 c -5.702,0 -10.341,4.639 -10.341,10.342 0,5.702 4.639,10.341 10.341,10.341 5.702,0 10.342,-4.639 10.342,-10.341 0,-5.703 -4.64,-10.342 -10.342,-10.342 z m 0,19.643 c -5.129,0 -9.302,-4.173 -9.302,-9.302 0,-5.129 4.173,-9.302 9.302,-9.302 5.129,0 9.302,4.173 9.302,9.302 0,5.13 -4.173,9.302 -9.302,9.302 z"
   id="path100" />
			
				<radialGradient
   id="SVGID_00000029039338168528547740000014699590459509808793_"
   cx="-338.73901"
   cy="-2170.3687"
   r="183.873"
   gradientTransform="rotate(180,-144.5221,-997.21)"
   gradientUnits="userSpaceOnUse">
				<stop
   offset="0.3383"
   style="stop-color:#000000"
   id="stop101" />
				<stop
   offset="0.415"
   style="stop-color:#050505"
   id="stop102" />
				<stop
   offset="0.5054"
   style="stop-color:#131313"
   id="stop103" />
				<stop
   offset="0.6028"
   style="stop-color:#2B2B2B"
   id="stop104" />
				<stop
   offset="0.7051"
   style="stop-color:#4C4C4C"
   id="stop105" />
				<stop
   offset="0.8113"
   style="stop-color:#777777"
   id="stop106" />
				<stop
   offset="0.9191"
   style="stop-color:#AAAAAA"
   id="stop107" />
				<stop
   offset="1"
   style="stop-color:#D6D6D6"
   id="stop108" />
			</radialGradient>
			<path
   style="fill:#006cff;fill-opacity:1"
   d="m 179.961,180.987 c -3.702,0 -6.703,3.001 -6.703,6.704 0,3.702 3.001,6.703 6.703,6.703 3.702,0 6.704,-3.001 6.704,-6.703 0,-3.703 -3.002,-6.704 -6.704,-6.704 z"
   id="path108" />
			
				<radialGradient
   id="SVGID_00000161627628000538699280000008366483996578759568_"
   cx="322.8493"
   cy="110.5103"
   r="183.8741"
   gradientUnits="userSpaceOnUse">
				<stop
   offset="0.33829999"
   style="stop-color:#006cff;stop-opacity:1;"
   id="stop109" />
				<stop
   offset="0.415"
   style="stop-color:#050505"
   id="stop110" />
				<stop
   offset="0.5054"
   style="stop-color:#131313"
   id="stop111" />
				<stop
   offset="0.6028"
   style="stop-color:#2B2B2B"
   id="stop112" />
				<stop
   offset="0.7051"
   style="stop-color:#4C4C4C"
   id="stop113" />
				<stop
   offset="0.8113"
   style="stop-color:#777777"
   id="stop114" />
				<stop
   offset="0.9191"
   style="stop-color:#AAAAAA"
   id="stop115" />
				<stop
   offset="1"
   style="stop-color:#D6D6D6"
   id="stop116" />
			</radialGradient>
			<path
   style="fill:#006cff;fill-opacity:1"
   d="m 143.33,181.708 c -0.319,1.965 -0.48,3.978 -0.48,5.983 v 0.092 l 5.444,-0.022 c 0.005,2.236 0.246,4.417 0.693,6.523 l -5.332,1.129 c 0.415,1.958 0.994,3.896 1.721,5.761 l 5.086,-1.984 c 0.803,2.053 1.813,4.003 3.007,5.823 l -4.569,2.994 c 1.095,1.671 2.335,3.266 3.685,4.741 l 4.027,-3.687 c 1.478,1.614 3.124,3.069 4.905,4.35 l -3.189,4.438 c 1.626,1.169 3.359,2.212 5.149,3.101 l 2.428,-4.89 c 1.943,0.967 3.995,1.745 6.138,2.299 l -1.358,5.275 c 1.934,0.498 3.926,0.841 5.922,1.02 l 0.487,-5.429 c 0.945,0.085 1.9,0.136 2.868,0.136 1.249,0 2.479,-0.081 3.69,-0.222 l 0.628,5.415 c 1.99,-0.231 3.973,-0.626 5.895,-1.175 l -1.499,-5.247 c 2.125,-0.609 4.16,-1.432 6.078,-2.45 l 2.555,4.825 c 1.765,-0.935 3.468,-2.022 5.063,-3.231 l -3.3,-4.351 c 1.746,-1.325 3.347,-2.83 4.784,-4.482 l 4.125,3.586 c 1.313,-1.51 2.511,-3.138 3.562,-4.837 L 206.9,204.32 c 1.146,-1.849 2.108,-3.824 2.857,-5.899 l 5.13,1.848 c 0.678,-1.882 1.206,-3.835 1.569,-5.804 l -5.364,-0.99 c 0.348,-1.876 0.539,-3.807 0.539,-5.782 0,-0.253 -0.013,-0.503 -0.019,-0.754 l 5.452,-0.128 c -0.047,-2.005 -0.256,-4.014 -0.622,-5.972 l -5.361,1.002 c -0.409,-2.18 -1.037,-4.282 -1.869,-6.281 l 5.038,-2.093 c -0.766,-1.845 -1.691,-3.642 -2.747,-5.342 l -4.638,2.883 c -1.16,-1.864 -2.51,-3.597 -4.02,-5.176 l 3.952,-3.777 c -1.381,-1.445 -2.89,-2.789 -4.485,-3.993 l -3.29,4.357 c -1.739,-1.315 -3.619,-2.452 -5.611,-3.39 l 2.322,-4.939 c -1.813,-0.852 -3.709,-1.561 -5.635,-2.106 l -1.487,5.25 c -2.075,-0.59 -4.234,-0.973 -6.457,-1.125 l 0.371,-5.44 c -0.846,-0.058 -1.708,-0.087 -2.561,-0.087 -1.146,0 -2.303,0.053 -3.438,0.158 l 0.499,5.426 c -2.216,0.205 -4.369,0.634 -6.43,1.274 l -1.611,-5.206 c -1.911,0.591 -3.788,1.344 -5.579,2.239 l 2.439,4.885 c -1.967,0.984 -3.817,2.168 -5.525,3.523 l -3.395,-4.283 c -1.566,1.241 -3.042,2.62 -4.389,4.097 l 4.033,3.678 c -1.472,1.614 -2.775,3.384 -3.892,5.276 l -4.705,-2.773 c -1.017,1.726 -1.899,3.547 -2.622,5.412 l 5.09,1.972 c -0.784,2.017 -1.369,4.132 -1.726,6.323 z m 36.631,33.078 c -14.941,0 -27.096,-12.155 -27.096,-27.095 0,-14.941 12.155,-27.096 27.096,-27.096 14.941,0 27.096,12.155 27.096,27.096 0,14.94 -12.155,27.095 -27.096,27.095 z"
   id="path116" />
		</g>
	</g>
	<g
   id="g213"
   style="fill:#006cff;fill-opacity:1"
   transform="matrix(0.88892742,0,0,0.8388537,31.022238,1.6965482)">
		<g
   id="g140"
   style="fill:#006cff;fill-opacity:1">
			
				<radialGradient
   id="SVGID_00000134224707644794462950000003182591033175782574_"
   cx="151.76691"
   cy="143.0764"
   r="190.821"
   gradientTransform="translate(-22.2992,-8.315)"
   gradientUnits="userSpaceOnUse">
				<stop
   offset="0.3383"
   style="stop-color:#000000"
   id="stop117" />
				<stop
   offset="0.415"
   style="stop-color:#050505"
   id="stop118" />
				<stop
   offset="0.5054"
   style="stop-color:#131313"
   id="stop119" />
				<stop
   offset="0.6028"
   style="stop-color:#2B2B2B"
   id="stop120" />
				<stop
   offset="0.7051"
   style="stop-color:#4C4C4C"
   id="stop121" />
				<stop
   offset="0.8113"
   style="stop-color:#777777"
   id="stop122" />
				<stop
   offset="0.9191"
   style="stop-color:#AAAAAA"
   id="stop123" />
				<stop
   offset="1"
   style="stop-color:#D6D6D6"
   id="stop124" />
			</radialGradient>
			<path
   style="fill:#006cff;fill-opacity:1"
   d="m 237.377,192.386 c -7.801,0 -14.148,6.347 -14.148,14.148 0,7.801 6.347,14.148 14.148,14.148 7.801,0 14.148,-6.347 14.148,-14.148 0,-7.802 -6.347,-14.148 -14.148,-14.148 z m 0,19.623 c -3.019,0 -5.475,-2.456 -5.475,-5.475 0,-3.019 2.456,-5.475 5.475,-5.475 3.019,0 5.475,2.456 5.475,5.475 0,3.019 -2.456,5.475 -5.475,5.475 z"
   id="path124" />
			
				<radialGradient
   id="SVGID_00000065039649198409451880000001208487530045716367_"
   cx="151.76711"
   cy="143.07651"
   r="190.8213"
   gradientTransform="translate(-22.2992,-8.315)"
   gradientUnits="userSpaceOnUse">
				<stop
   offset="0.3383"
   style="stop-color:#000000"
   id="stop125" />
				<stop
   offset="0.415"
   style="stop-color:#050505"
   id="stop126" />
				<stop
   offset="0.5054"
   style="stop-color:#131313"
   id="stop127" />
				<stop
   offset="0.6028"
   style="stop-color:#2B2B2B"
   id="stop128" />
				<stop
   offset="0.7051"
   style="stop-color:#4C4C4C"
   id="stop129" />
				<stop
   offset="0.8113"
   style="stop-color:#777777"
   id="stop130" />
				<stop
   offset="0.9191"
   style="stop-color:#AAAAAA"
   id="stop131" />
				<stop
   offset="1"
   style="stop-color:#D6D6D6"
   id="stop132" />
			</radialGradient>
			<path
   style="fill:#006cff;fill-opacity:1"
   d="m 237.377,181.469 c -13.821,0 -25.065,11.244 -25.065,25.065 0,13.821 11.244,25.065 25.065,25.065 13.821,0 25.065,-11.244 25.065,-25.065 0,-13.821 -11.244,-25.065 -25.065,-25.065 z m 0,45.793 c -11.43,0 -20.729,-9.299 -20.729,-20.729 0,-11.43 9.299,-20.729 20.729,-20.729 11.43,0 20.729,9.299 20.729,20.729 -10e-4,11.43 -9.299,20.729 -20.729,20.729 z"
   id="path132" />
			
				<radialGradient
   id="SVGID_00000056424291361437452480000018331819569985759660_"
   cx="151.7668"
   cy="143.07629"
   r="190.8217"
   gradientTransform="translate(-22.2992,-8.315)"
   gradientUnits="userSpaceOnUse">
				<stop
   offset="0.3383"
   style="stop-color:#000000"
   id="stop133" />
				<stop
   offset="0.415"
   style="stop-color:#050505"
   id="stop134" />
				<stop
   offset="0.5054"
   style="stop-color:#131313"
   id="stop135" />
				<stop
   offset="0.6028"
   style="stop-color:#2B2B2B"
   id="stop136" />
				<stop
   offset="0.7051"
   style="stop-color:#4C4C4C"
   id="stop137" />
				<stop
   offset="0.8113"
   style="stop-color:#777777"
   id="stop138" />
				<stop
   offset="0.9191"
   style="stop-color:#AAAAAA"
   id="stop139" />
				<stop
   offset="1"
   style="stop-color:#D6D6D6"
   id="stop140" />
			</radialGradient>
			<path
   style="fill:#006cff;fill-opacity:1"
   d="m 278.917,209.37 c 0.063,-0.939 0.095,-1.893 0.095,-2.837 v -0.108 l -3.836,0.013 c -0.002,-0.868 -0.043,-1.726 -0.103,-2.579 l 3.836,-0.269 c -0.066,-0.943 -0.165,-1.893 -0.294,-2.825 l -3.809,0.528 c -0.119,-0.856 -0.262,-1.705 -0.438,-2.542 l 3.76,-0.787 c -0.193,-0.924 -0.422,-1.853 -0.678,-2.762 l -3.706,1.046 c -0.235,-0.83 -0.492,-1.651 -0.782,-2.458 l 3.622,-1.297 c -0.317,-0.887 -0.67,-1.775 -1.049,-2.64 l -3.53,1.545 c -0.346,-0.789 -0.719,-1.562 -1.116,-2.322 l 3.419,-1.785 c -0.437,-0.836 -0.907,-1.668 -1.4,-2.472 l -3.284,2.011 c -0.45,-0.734 -0.93,-1.447 -1.428,-2.146 l 3.148,-2.235 c -0.546,-0.768 -1.125,-1.528 -1.722,-2.259 l -2.984,2.44 c -0.545,-0.666 -1.116,-1.309 -1.704,-1.936 l 2.816,-2.641 c -0.646,-0.688 -1.323,-1.363 -2.013,-2.005 l -2.629,2.825 c -0.629,-0.586 -1.277,-1.152 -1.945,-1.695 l 2.43,-2.995 c -0.733,-0.595 -1.496,-1.172 -2.267,-1.715 l -2.223,3.156 c -0.703,-0.495 -1.417,-0.976 -2.153,-1.423 l 1.996,-3.29 c -0.808,-0.49 -1.642,-0.958 -2.481,-1.391 l -1.771,3.426 c -0.763,-0.395 -1.538,-0.768 -2.33,-1.112 l 1.529,-3.534 c -0.868,-0.375 -1.759,-0.725 -2.651,-1.04 l -1.282,3.63 c -0.808,-0.286 -1.629,-0.542 -2.46,-0.774 l 1.029,-3.71 c -0.91,-0.252 -1.84,-0.476 -2.765,-0.666 l -0.769,3.76 c -0.838,-0.172 -1.688,-0.306 -2.545,-0.421 l 0.511,-3.812 c -0.933,-0.125 -1.884,-0.22 -2.827,-0.282 l -0.251,3.836 c -0.83,-0.055 -1.664,-0.092 -2.507,-0.092 -0.024,0 -0.048,0.002 -0.072,0.002 l -0.007,-3.836 c -0.945,0.002 -1.899,0.036 -2.837,0.101 l 0.266,3.837 c -0.863,0.06 -1.719,0.148 -2.566,0.265 l -0.526,-3.809 c -0.935,0.129 -1.878,0.292 -2.801,0.485 l 0.784,3.76 c -0.846,0.177 -1.678,0.39 -2.503,0.623 l -1.043,-3.707 c -0.909,0.256 -1.82,0.547 -2.71,0.865 l 1.295,3.623 c -0.811,0.291 -1.608,0.61 -2.393,0.954 l -1.542,-3.53 c -0.863,0.377 -1.725,0.79 -2.562,1.226 l 1.782,3.42 c -0.763,0.398 -1.515,0.816 -2.246,1.264 l -2.009,-3.285 c -0.804,0.492 -1.602,1.017 -2.371,1.563 l 2.233,3.149 c -0.702,0.498 -1.39,1.014 -2.055,1.558 l -2.438,-2.986 c -0.73,0.596 -1.45,1.226 -2.138,1.871 l 2.639,2.817 c -0.628,0.588 -1.236,1.196 -1.822,1.826 l -2.824,-2.631 c -0.643,0.69 -1.271,1.411 -1.866,2.144 l 2.993,2.432 c -0.542,0.667 -1.058,1.356 -1.555,2.059 l -3.155,-2.225 c -0.544,0.771 -1.068,1.571 -1.559,2.378 l 3.289,1.999 c -0.446,0.734 -0.86,1.489 -1.257,2.255 l -3.425,-1.773 c -0.434,0.839 -0.845,1.704 -1.221,2.571 l 3.533,1.531 c -0.342,0.788 -0.657,1.589 -0.946,2.403 l -3.629,-1.284 c -0.315,0.89 -0.603,1.802 -0.856,2.712 l 3.709,1.032 c -0.23,0.825 -0.443,1.658 -0.617,2.504 l -3.76,-0.772 c -0.189,0.923 -0.35,1.866 -0.476,2.802 l 3.812,0.514 c -0.115,0.847 -0.202,1.703 -0.259,2.566 l -3.836,-0.254 c -0.061,0.92 -0.092,1.857 -0.092,2.785 v 0.049 h 3.835 c 0.001,0.867 0.041,1.725 0.1,2.578 l -3.837,0.264 c 0.065,0.942 0.162,1.893 0.291,2.826 l 3.81,-0.523 c 0.118,0.856 0.258,1.706 0.433,2.543 l -3.76,0.782 c 0.192,0.924 0.419,1.853 0.674,2.762 l 3.708,-1.041 c 0.234,0.831 0.491,1.652 0.78,2.458 l -3.625,1.293 c 0.317,0.888 0.669,1.776 1.045,2.64 l 3.531,-1.54 c 0.345,0.789 0.718,1.563 1.114,2.323 l -3.421,1.78 c 0.435,0.836 0.905,1.669 1.396,2.473 l 3.286,-2.006 c 0.449,0.735 0.93,1.447 1.426,2.148 l -3.15,2.231 c 0.545,0.769 1.123,1.53 1.72,2.261 l 2.987,-2.437 c 0.544,0.667 1.113,1.311 1.701,1.939 l -2.819,2.637 c 0.644,0.689 1.321,1.364 2.011,2.008 l 2.633,-2.822 c 0.629,0.587 1.275,1.154 1.943,1.698 l -2.434,2.991 c 0.732,0.596 1.494,1.174 2.265,1.718 l 2.227,-3.153 c 0.702,0.496 1.415,0.977 2.152,1.426 l -2,3.288 c 0.807,0.491 1.641,0.96 2.479,1.395 l 1.775,-3.424 c 0.762,0.396 1.537,0.769 2.329,1.114 l -1.534,3.533 c 0.867,0.376 1.758,0.727 2.65,1.043 l 1.286,-3.628 c 0.807,0.287 1.628,0.544 2.46,0.776 l -1.034,3.709 c 0.909,0.253 1.839,0.478 2.764,0.669 l 0.775,-3.76 c 0.837,0.173 1.688,0.31 2.544,0.426 l -0.516,3.811 c 0.933,0.126 1.884,0.222 2.827,0.285 l 0.256,-3.836 c 0.845,0.057 1.695,0.096 2.555,0.096 0.008,0 0.016,-0.001 0.024,-0.001 l 0.002,3.834 c 0.944,-0.001 1.899,-0.033 2.838,-0.097 l -0.261,-3.836 c 0.864,-0.059 1.719,-0.146 2.566,-0.263 l 0.521,3.81 c 0.936,-0.128 1.878,-0.29 2.802,-0.481 l -0.78,-3.76 c 0.846,-0.176 1.679,-0.389 2.504,-0.621 l 1.038,3.708 c 0.909,-0.255 1.821,-0.544 2.711,-0.861 l -1.291,-3.626 c 0.812,-0.29 1.609,-0.607 2.394,-0.95 l 1.538,3.531 c 0.864,-0.376 1.727,-0.788 2.564,-1.222 l -1.778,-3.422 c 0.763,-0.397 1.516,-0.813 2.248,-1.259 l 2.004,3.287 c 0.805,-0.491 1.603,-1.016 2.373,-1.56 l -2.229,-3.152 c 0.702,-0.497 1.39,-1.013 2.056,-1.556 l 2.435,2.989 c 0.731,-0.595 1.451,-1.224 2.141,-1.868 l -2.635,-2.82 c 0.628,-0.587 1.237,-1.195 1.824,-1.824 l 2.821,2.635 c 0.644,-0.69 1.273,-1.41 1.868,-2.141 l -2.99,-2.435 c 0.543,-0.666 1.059,-1.355 1.557,-2.058 l 3.152,2.229 c 0.545,-0.771 1.071,-1.57 1.562,-2.376 l -3.287,-2.003 c 0.447,-0.733 0.863,-1.488 1.261,-2.253 l 3.423,1.777 c 0.436,-0.84 0.847,-1.704 1.224,-2.569 l -3.532,-1.536 c 0.343,-0.787 0.66,-1.587 0.95,-2.401 l 3.627,1.288 c 0.316,-0.89 0.605,-1.802 0.859,-2.711 l -3.709,-1.037 c 0.231,-0.825 0.444,-1.657 0.62,-2.504 l 3.76,0.777 c 0.191,-0.924 0.352,-1.867 0.479,-2.802 l -3.811,-0.519 c 0.116,-0.847 0.203,-1.703 0.262,-2.566 z m -41.54,28.461 c -17.257,0 -31.297,-14.04 -31.297,-31.297 0,-17.257 14.04,-31.297 31.297,-31.297 17.257,0 31.297,14.04 31.297,31.297 0,17.257 -14.04,31.297 -31.297,31.297 z"
   id="path140" />
		</g>
		<g
   id="g156"
   style="fill:#006cff;fill-opacity:1">
			
				<radialGradient
   id="SVGID_00000088105887948808240850000011438925449458812095_"
   cx="74.213203"
   cy="126.3857"
   r="190.82201"
   gradientTransform="translate(-22.2992,-8.315)"
   gradientUnits="userSpaceOnUse">
				<stop
   offset="0.3383"
   style="stop-color:#000000"
   id="stop141" />
				<stop
   offset="0.415"
   style="stop-color:#050505"
   id="stop142" />
				<stop
   offset="0.5054"
   style="stop-color:#131313"
   id="stop143" />
				<stop
   offset="0.6028"
   style="stop-color:#2B2B2B"
   id="stop144" />
				<stop
   offset="0.7051"
   style="stop-color:#4C4C4C"
   id="stop145" />
				<stop
   offset="0.8113"
   style="stop-color:#777777"
   id="stop146" />
				<stop
   offset="0.9191"
   style="stop-color:#AAAAAA"
   id="stop147" />
				<stop
   offset="1"
   style="stop-color:#D6D6D6"
   id="stop148" />
			</radialGradient>
			<circle
   style="fill:#006cff;fill-opacity:1"
   cx="211.39999"
   cy="244.996"
   r="8.9189997"
   id="circle148" />
			
				<radialGradient
   id="SVGID_00000059992168221004642160000011926730939911513771_"
   cx="74.213402"
   cy="126.3863"
   r="190.82091"
   gradientTransform="translate(-22.2992,-8.315)"
   gradientUnits="userSpaceOnUse">
				<stop
   offset="0.3383"
   style="stop-color:#000000"
   id="stop149" />
				<stop
   offset="0.415"
   style="stop-color:#050505"
   id="stop150" />
				<stop
   offset="0.5054"
   style="stop-color:#131313"
   id="stop151" />
				<stop
   offset="0.6028"
   style="stop-color:#2B2B2B"
   id="stop152" />
				<stop
   offset="0.7051"
   style="stop-color:#4C4C4C"
   id="stop153" />
				<stop
   offset="0.8113"
   style="stop-color:#777777"
   id="stop154" />
				<stop
   offset="0.9191"
   style="stop-color:#AAAAAA"
   id="stop155" />
				<stop
   offset="1"
   style="stop-color:#D6D6D6"
   id="stop156" />
			</radialGradient>
			<path
   style="fill:#006cff;fill-opacity:1"
   d="m 241.136,248.156 c 0.11,-1.043 0.165,-2.106 0.165,-3.175 v -0.043 h -4.387 c -0.004,-1.952 -0.235,-3.851 -0.656,-5.677 l 4.285,-0.984 c -0.236,-1.027 -0.53,-2.053 -0.874,-3.05 l -4.157,1.436 c -0.631,-1.82 -1.46,-3.547 -2.466,-5.155 l 3.733,-2.331 c -0.557,-0.892 -1.169,-1.765 -1.818,-2.595 l -3.468,2.714 c -1.178,-1.505 -2.519,-2.877 -3.999,-4.084 l 2.779,-3.412 c -0.817,-0.665 -1.678,-1.294 -2.559,-1.869 l -2.404,3.687 c -1.589,-1.038 -3.297,-1.908 -5.104,-2.574 l 1.516,-4.122 c -0.99,-0.364 -2.01,-0.678 -3.033,-0.935 l -1.067,4.26 c -1.82,-0.458 -3.717,-0.714 -5.667,-0.756 l 0.095,-4.392 c -1.049,-0.023 -2.118,0.01 -3.164,0.097 l 0.365,4.378 c -1.938,0.162 -3.815,0.538 -5.606,1.111 l -1.334,-4.186 c -1.004,0.32 -2.002,0.698 -2.967,1.123 l 1.775,4.025 c -1.757,0.777 -3.413,1.741 -4.936,2.877 l -2.626,-3.527 c -0.844,0.628 -1.664,1.309 -2.438,2.023 l 2.986,3.233 c -1.402,1.295 -2.658,2.744 -3.743,4.321 l -3.627,-2.491 c -0.596,0.868 -1.153,1.778 -1.654,2.705 l 3.866,2.091 c -0.902,1.664 -1.618,3.442 -2.134,5.302 l -4.238,-1.171 c -0.28,1.015 -0.509,2.057 -0.681,3.097 l 4.334,0.713 c -0.225,1.359 -0.347,2.751 -0.347,4.173 0,0.517 0.02,1.029 0.051,1.539 l -4.383,0.261 c 0.063,1.053 0.182,2.112 0.355,3.148 l 4.334,-0.722 c 0.32,1.911 0.851,3.751 1.572,5.494 l -4.064,1.677 c 0.402,0.973 0.86,1.936 1.363,2.862 l 3.861,-2.098 c 0.917,1.684 2.023,3.25 3.281,4.679 l -3.306,2.909 c 0.695,0.79 1.44,1.552 2.215,2.264 l 2.979,-3.239 c 1.402,1.29 2.95,2.422 4.614,3.375 l -2.186,3.82 c 0.915,0.524 1.868,1.004 2.833,1.427 l 1.766,-4.028 c 1.729,0.76 3.556,1.333 5.459,1.694 l -0.817,4.317 c 1.033,0.195 2.089,0.338 3.141,0.423 l 0.356,-4.379 c 0.692,0.057 1.389,0.093 2.095,0.093 1.23,0 2.438,-0.093 3.622,-0.262 l 0.617,4.348 c 1.044,-0.148 2.091,-0.354 3.112,-0.612 l -1.077,-4.257 c 1.872,-0.475 3.66,-1.162 5.343,-2.027 l 2.008,3.917 c 0.936,-0.48 1.858,-1.016 2.74,-1.594 l -2.412,-3.682 c 1.601,-1.05 3.076,-2.275 4.4,-3.647 l 3.17,3.057 c 0.731,-0.758 1.429,-1.563 2.076,-2.392 l -3.473,-2.707 c 1.169,-1.5 2.176,-3.131 2.991,-4.871 l 3.984,1.863 c 0.447,-0.955 0.847,-1.945 1.189,-2.942 l -4.16,-1.428 c 0.613,-1.781 1.039,-3.648 1.243,-5.581 z M 211.4,266.827 c -12.038,0 -21.832,-9.794 -21.832,-21.832 0,-12.038 9.794,-21.832 21.832,-21.832 12.038,0 21.832,9.794 21.832,21.832 -0.001,12.039 -9.794,21.832 -21.832,21.832 z"
   id="path156" />
		</g>
		<g
   id="g172"
   style="fill:#006cff;fill-opacity:1">
			
				<radialGradient
   id="SVGID_00000067926761154492625850000014902574735441695619_"
   cx="74.213097"
   cy="126.3861"
   r="190.8222"
   gradientTransform="translate(-22.2992,-8.315)"
   gradientUnits="userSpaceOnUse">
				<stop
   offset="0.3383"
   style="stop-color:#000000"
   id="stop157" />
				<stop
   offset="0.415"
   style="stop-color:#050505"
   id="stop158" />
				<stop
   offset="0.5054"
   style="stop-color:#131313"
   id="stop159" />
				<stop
   offset="0.6028"
   style="stop-color:#2B2B2B"
   id="stop160" />
				<stop
   offset="0.7051"
   style="stop-color:#4C4C4C"
   id="stop161" />
				<stop
   offset="0.8113"
   style="stop-color:#777777"
   id="stop162" />
				<stop
   offset="0.9191"
   style="stop-color:#AAAAAA"
   id="stop163" />
				<stop
   offset="1"
   style="stop-color:#D6D6D6"
   id="stop164" />
			</radialGradient>
			<path
   style="fill:#006cff;fill-opacity:1"
   d="m 246.65,151.527 c -12.626,0 -22.866,10.24 -22.866,22.866 0,12.636 10.24,22.876 22.866,22.876 12.636,0 22.876,-10.24 22.876,-22.876 10e-4,-12.626 -10.239,-22.866 -22.876,-22.866 z m -0.003,40.942 c -9.98,0 -18.062,-8.101 -18.062,-18.08 0,-9.98 8.083,-18.062 18.062,-18.062 9.997,0 18.08,8.083 18.08,18.062 0,9.98 -8.083,18.08 -18.08,18.08 z"
   id="path164" />
			
				<radialGradient
   id="SVGID_00000083079286433185223280000016457092431325173640_"
   cx="74.213097"
   cy="126.3859"
   r="190.8215"
   gradientTransform="translate(-22.2992,-8.315)"
   gradientUnits="userSpaceOnUse">
				<stop
   offset="0.33829999"
   style="stop-color:#006cff;stop-opacity:1;"
   id="stop165" />
				<stop
   offset="0.415"
   style="stop-color:#050505"
   id="stop166" />
				<stop
   offset="0.5054"
   style="stop-color:#131313"
   id="stop167" />
				<stop
   offset="0.6028"
   style="stop-color:#2B2B2B"
   id="stop168" />
				<stop
   offset="0.7051"
   style="stop-color:#4C4C4C"
   id="stop169" />
				<stop
   offset="0.8113"
   style="stop-color:#777777"
   id="stop170" />
				<stop
   offset="0.9191"
   style="stop-color:#AAAAAA"
   id="stop171" />
				<stop
   offset="1"
   style="stop-color:#D6D6D6"
   id="stop172" />
			</radialGradient>
			<path
   style="fill:#006cff;fill-opacity:1"
   d="m 274.514,174.335 c 0,-1.372 -0.107,-2.724 -0.302,-4.047 l 4.738,-0.701 c -0.088,-0.613 -0.204,-1.226 -0.321,-1.829 l -4.689,0.963 c -0.282,-1.333 -0.652,-2.627 -1.119,-3.891 l 4.504,-1.644 c -0.214,-0.584 -0.448,-1.158 -0.691,-1.722 l -4.397,1.897 c -0.545,-1.245 -1.168,-2.442 -1.878,-3.59 l 4.076,-2.52 c -0.321,-0.525 -0.662,-1.051 -1.022,-1.557 l -3.94,2.753 c -0.769,-1.109 -1.615,-2.15 -2.559,-3.133 l 3.502,-3.298 c -0.418,-0.447 -0.866,-0.895 -1.313,-1.323 l -3.308,3.493 c -0.983,-0.944 -2.024,-1.8 -3.133,-2.568 l 2.773,-3.93 c -0.506,-0.35 -1.031,-0.701 -1.557,-1.031 l -2.539,4.086 c -1.138,-0.72 -2.335,-1.343 -3.58,-1.887 l 1.917,-4.407 c -0.574,-0.243 -1.158,-0.477 -1.732,-0.691 l -1.664,4.504 c -1.255,-0.467 -2.559,-0.846 -3.891,-1.129 l 0.982,-4.689 c -0.603,-0.127 -1.226,-0.243 -1.839,-0.331 l -0.71,4.738 c -1.313,-0.195 -2.666,-0.302 -4.037,-0.311 l 0.019,-4.787 h -0.156 c -0.564,0 -1.138,0.01 -1.703,0.039 l 0.253,4.787 c -1.372,0.068 -2.714,0.243 -4.028,0.506 l -0.934,-4.709 c -0.613,0.126 -1.216,0.263 -1.819,0.418 l 1.206,4.641 c -1.313,0.34 -2.597,0.788 -3.833,1.304 l -1.868,-4.407 c -0.574,0.234 -1.138,0.496 -1.693,0.769 l 2.121,4.31 c -1.216,0.593 -2.384,1.284 -3.493,2.043 l -2.724,-3.95 c -0.506,0.35 -1.012,0.72 -1.498,1.099 l 2.948,3.794 c -1.07,0.827 -2.082,1.742 -3.016,2.714 l -3.463,-3.327 c -0.428,0.438 -0.846,0.905 -1.245,1.372 l 3.648,3.133 c -0.895,1.022 -1.693,2.111 -2.413,3.259 l -4.057,-2.568 c -0.331,0.525 -0.652,1.06 -0.953,1.605 l 4.203,2.325 c -0.662,1.177 -1.236,2.403 -1.702,3.677 l -4.495,-1.693 c -0.214,0.584 -0.418,1.177 -0.603,1.771 l 4.573,1.43 c -0.399,1.275 -0.71,2.598 -0.924,3.94 l -4.728,-0.749 c -0.097,0.613 -0.175,1.236 -0.243,1.849 l 4.777,0.477 c -0.097,0.915 -0.146,1.839 -0.146,2.782 0,0.428 0.01,0.846 0.039,1.265 l -4.796,0.214 c 0.029,0.623 0.078,1.245 0.136,1.858 l 4.767,-0.486 c 0.136,1.362 0.379,2.695 0.7,3.999 l -4.641,1.167 c 0.146,0.603 0.321,1.206 0.506,1.79 l 4.573,-1.44 c 0.409,1.294 0.905,2.559 1.498,3.765 l -4.32,2.092 c 0.272,0.555 0.564,1.109 0.856,1.654 l 4.203,-2.345 c 0.642,1.187 1.391,2.316 2.218,3.386 l -3.814,2.928 c 0.379,0.486 0.769,0.973 1.177,1.44 l 3.639,-3.133 c 0.885,1.031 1.839,1.994 2.86,2.87 l -3.152,3.629 c 0.467,0.399 0.953,0.798 1.44,1.177 l 2.938,-3.804 c 1.07,0.837 2.199,1.586 3.376,2.257 l -2.354,4.174 c 0.535,0.302 1.09,0.594 1.644,0.866 l 2.111,-4.31 c 1.206,0.603 2.461,1.109 3.765,1.527 l -1.459,4.563 c 0.584,0.185 1.187,0.36 1.79,0.516 l 1.187,-4.631 c 1.294,0.331 2.627,0.574 3.989,0.71 l -0.506,4.767 c 0.613,0.068 1.236,0.117 1.858,0.146 l 0.233,-4.787 c 0.457,0.029 0.924,0.039 1.391,0.039 0.895,0 1.78,-0.039 2.656,-0.136 l 0.457,4.777 c 0.613,-0.058 1.235,-0.136 1.848,-0.234 l -0.73,-4.728 c 1.352,-0.204 2.675,-0.516 3.96,-0.914 l 1.401,4.592 c 0.594,-0.185 1.187,-0.389 1.761,-0.603 l -1.663,-4.495 c 1.274,-0.477 2.51,-1.041 3.687,-1.683 l 2.306,4.203 c 0.535,-0.292 1.08,-0.613 1.595,-0.934 l -2.539,-4.076 c 1.148,-0.71 2.238,-1.508 3.259,-2.393 l 3.113,3.668 c 0.477,-0.399 0.934,-0.817 1.381,-1.245 l -3.308,-3.483 c 0.983,-0.924 1.897,-1.926 2.724,-2.996 l 3.784,2.967 c 0.379,-0.486 0.749,-0.983 1.109,-1.489 l -3.95,-2.753 c 0.788,-1.109 1.479,-2.267 2.072,-3.483 l 4.3,2.15 c 0.282,-0.555 0.545,-1.129 0.788,-1.693 l -4.407,-1.897 c 0.535,-1.236 0.973,-2.51 1.323,-3.833 l 4.631,1.226 c 0.165,-0.594 0.302,-1.206 0.428,-1.81 l -4.689,-0.953 c 0.263,-1.313 0.438,-2.656 0.516,-4.028 l 4.787,0.272 c 0.029,-0.613 0.049,-1.236 0.049,-1.839 v -0.097 z m -27.863,26.11 c -14.366,0 -26.052,-11.686 -26.052,-26.052 0,-14.366 11.686,-26.051 26.052,-26.051 14.366,0 26.052,11.686 26.052,26.051 0,14.366 -11.686,26.052 -26.052,26.052 z"
   id="path172" />
		</g>
		<g
   id="g212"
   style="fill:#006cff;fill-opacity:1">
			
				<radialGradient
   id="SVGID_00000054223986897772903150000004007659615554024892_"
   cx="74.213699"
   cy="126.3859"
   r="190.8215"
   gradientTransform="translate(-22.2992,-8.315)"
   gradientUnits="userSpaceOnUse">
				<stop
   offset="0.3383"
   style="stop-color:#000000"
   id="stop173" />
				<stop
   offset="0.415"
   style="stop-color:#050505"
   id="stop174" />
				<stop
   offset="0.5054"
   style="stop-color:#131313"
   id="stop175" />
				<stop
   offset="0.6028"
   style="stop-color:#2B2B2B"
   id="stop176" />
				<stop
   offset="0.7051"
   style="stop-color:#4C4C4C"
   id="stop177" />
				<stop
   offset="0.8113"
   style="stop-color:#777777"
   id="stop178" />
				<stop
   offset="0.9191"
   style="stop-color:#AAAAAA"
   id="stop179" />
				<stop
   offset="1"
   style="stop-color:#D6D6D6"
   id="stop180" />
			</radialGradient>
			<path
   style="fill:#006cff;fill-opacity:1"
   d="m 197.391,108.433 c 17.974,0 32.597,-14.623 32.597,-32.598 0,-17.974 -14.623,-32.597 -32.597,-32.597 -17.975,0 -32.598,14.623 -32.598,32.597 0.001,17.975 14.624,32.598 32.598,32.598 z m 0,-63.358 c 16.961,0 30.76,13.799 30.76,30.761 0,16.962 -13.799,30.761 -30.76,30.761 -16.962,0 -30.761,-13.799 -30.761,-30.761 0,-16.962 13.8,-30.761 30.761,-30.761 z"
   id="path180" />
			
				<radialGradient
   id="SVGID_00000163047732078670406520000006451356377406530490_"
   cx="74.213699"
   cy="126.3859"
   r="190.8213"
   gradientTransform="translate(-22.2992,-8.315)"
   gradientUnits="userSpaceOnUse">
				<stop
   offset="0.3383"
   style="stop-color:#000000"
   id="stop181" />
				<stop
   offset="0.415"
   style="stop-color:#050505"
   id="stop182" />
				<stop
   offset="0.5054"
   style="stop-color:#131313"
   id="stop183" />
				<stop
   offset="0.6028"
   style="stop-color:#2B2B2B"
   id="stop184" />
				<stop
   offset="0.7051"
   style="stop-color:#4C4C4C"
   id="stop185" />
				<stop
   offset="0.8113"
   style="stop-color:#777777"
   id="stop186" />
				<stop
   offset="0.9191"
   style="stop-color:#AAAAAA"
   id="stop187" />
				<stop
   offset="1"
   style="stop-color:#D6D6D6"
   id="stop188" />
			</radialGradient>
			<path
   style="fill:#006cff;fill-opacity:1"
   d="m 197.391,103.658 c 15.341,0 27.822,-12.481 27.822,-27.823 0,-15.341 -12.481,-27.822 -27.822,-27.822 -15.342,0 -27.823,12.481 -27.823,27.822 0,15.342 12.482,27.823 27.823,27.823 z m 0,-53.808 c 14.328,0 25.985,11.657 25.985,25.986 0,14.329 -11.657,25.986 -25.985,25.986 -14.329,0 -25.986,-11.657 -25.986,-25.986 0,-14.329 11.657,-25.986 25.986,-25.986 z"
   id="path188" />
			
				<radialGradient
   id="SVGID_00000153678808652691643490000000061823704650906257_"
   cx="74.213203"
   cy="126.3861"
   r="190.8223"
   gradientTransform="translate(-22.2992,-8.315)"
   gradientUnits="userSpaceOnUse">
				<stop
   offset="0.3383"
   style="stop-color:#000000"
   id="stop189" />
				<stop
   offset="0.415"
   style="stop-color:#050505"
   id="stop190" />
				<stop
   offset="0.5054"
   style="stop-color:#131313"
   id="stop191" />
				<stop
   offset="0.6028"
   style="stop-color:#2B2B2B"
   id="stop192" />
				<stop
   offset="0.7051"
   style="stop-color:#4C4C4C"
   id="stop193" />
				<stop
   offset="0.8113"
   style="stop-color:#777777"
   id="stop194" />
				<stop
   offset="0.9191"
   style="stop-color:#AAAAAA"
   id="stop195" />
				<stop
   offset="1"
   style="stop-color:#D6D6D6"
   id="stop196" />
			</radialGradient>
			<path
   style="fill:#006cff;fill-opacity:1"
   d="m 197.391,94.108 c 10.075,0 18.272,-8.197 18.272,-18.273 0,-10.076 -8.197,-18.272 -18.272,-18.272 -10.076,0 -18.273,8.197 -18.273,18.272 0,10.076 8.198,18.273 18.273,18.273 z m 0,-34.708 c 9.062,0 16.435,7.373 16.435,16.436 0,9.063 -7.373,16.436 -16.435,16.436 -9.063,0 -16.436,-7.373 -16.436,-16.436 0,-9.064 7.373,-16.436 16.436,-16.436 z"
   id="path196" />
			
				<radialGradient
   id="SVGID_00000107557781447412453640000001741844021591919032_"
   cx="74.214104"
   cy="126.3859"
   r="190.8203"
   gradientTransform="translate(-22.2992,-8.315)"
   gradientUnits="userSpaceOnUse">
				<stop
   offset="0.3383"
   style="stop-color:#000000"
   id="stop197" />
				<stop
   offset="0.415"
   style="stop-color:#050505"
   id="stop198" />
				<stop
   offset="0.5054"
   style="stop-color:#131313"
   id="stop199" />
				<stop
   offset="0.6028"
   style="stop-color:#2B2B2B"
   id="stop200" />
				<stop
   offset="0.7051"
   style="stop-color:#4C4C4C"
   id="stop201" />
				<stop
   offset="0.8113"
   style="stop-color:#777777"
   id="stop202" />
				<stop
   offset="0.9191"
   style="stop-color:#AAAAAA"
   id="stop203" />
				<stop
   offset="1"
   style="stop-color:#D6D6D6"
   id="stop204" />
			</radialGradient>
			<path
   style="fill:#006cff;fill-opacity:1"
   d="m 197.391,87.68 c 6.541,0 11.844,-5.303 11.844,-11.845 0,-6.542 -5.303,-11.845 -11.844,-11.845 -6.541,0 -11.845,5.303 -11.845,11.845 0,6.542 5.304,11.845 11.845,11.845 z"
   id="path204" />
			
				<radialGradient
   id="SVGID_00000052081596207675984040000002122440468127038342_"
   cx="74.213203"
   cy="126.3859"
   r="190.8223"
   gradientTransform="translate(-22.2992,-8.315)"
   gradientUnits="userSpaceOnUse">
				<stop
   offset="0.3383"
   style="stop-color:#000000"
   id="stop205" />
				<stop
   offset="0.415"
   style="stop-color:#050505"
   id="stop206" />
				<stop
   offset="0.5054"
   style="stop-color:#131313"
   id="stop207" />
				<stop
   offset="0.6028"
   style="stop-color:#2B2B2B"
   id="stop208" />
				<stop
   offset="0.7051"
   style="stop-color:#4C4C4C"
   id="stop209" />
				<stop
   offset="0.8113"
   style="stop-color:#777777"
   id="stop210" />
				<stop
   offset="0.9191"
   style="stop-color:#AAAAAA"
   id="stop211" />
				<stop
   offset="1"
   style="stop-color:#D6D6D6"
   id="stop212" />
			</radialGradient>
			<path
   style="fill:#006cff;fill-opacity:1"
   d="m 262.116,86.407 c 0.563,-3.472 0.849,-7.029 0.849,-10.571 v -0.162 l -9.619,0.04 c -0.008,-3.951 -0.434,-7.805 -1.225,-11.526 l 9.422,-1.995 c -0.733,-3.46 -1.756,-6.885 -3.041,-10.179 l -8.987,3.506 c -1.419,-3.628 -3.203,-7.073 -5.313,-10.289 l 8.074,-5.29 c -1.934,-2.952 -4.125,-5.77 -6.512,-8.376 l -7.115,6.515 c -2.612,-2.852 -5.52,-5.423 -8.667,-7.686 l 5.634,-7.841 c -2.874,-2.065 -5.934,-3.908 -9.097,-5.479 l -4.29,8.64 c -3.433,-1.708 -7.06,-3.084 -10.846,-4.062 l 2.4,-9.321 c -3.417,-0.88 -6.937,-1.486 -10.464,-1.803 l -0.861,9.592 c -1.67,-0.151 -3.358,-0.24 -5.067,-0.24 -2.207,0 -4.38,0.143 -6.521,0.392 l -1.11,-9.569 c -3.516,0.408 -7.02,1.106 -10.415,2.076 l 2.649,9.272 c -3.755,1.077 -7.35,2.53 -10.739,4.328 l -4.515,-8.525 c -3.119,1.652 -6.128,3.572 -8.945,5.709 l 5.831,7.688 c -3.085,2.342 -5.913,5.001 -8.452,7.92 l -7.289,-6.336 c -2.32,2.669 -4.437,5.544 -6.295,8.546 l 8.204,5.075 c -2.025,3.268 -3.724,6.756 -5.049,10.423 l -9.065,-3.265 c -1.198,3.326 -2.131,6.776 -2.773,10.256 l 9.478,1.749 c -0.614,3.315 -0.952,6.727 -0.952,10.217 0,0.447 0.023,0.888 0.034,1.332 l -9.633,0.226 c 0.083,3.542 0.453,7.092 1.099,10.552 l 9.473,-1.77 c 0.723,3.851 1.833,7.566 3.303,11.098 l -8.902,3.697 c 1.354,3.259 2.987,6.435 4.854,9.439 l 8.195,-5.094 c 2.05,3.294 4.436,6.355 7.104,9.146 l -6.982,6.673 c 2.441,2.554 5.107,4.928 7.924,7.056 l 5.814,-7.698 c 3.074,2.323 6.395,4.333 9.914,5.99 l -4.102,8.728 c 3.204,1.506 6.554,2.758 9.956,3.722 l 2.628,-9.277 c 3.666,1.042 7.481,1.719 11.409,1.988 l -0.656,9.611 c 1.496,0.102 3.018,0.154 4.524,0.154 2.025,0 4.069,-0.094 6.074,-0.278 l -0.882,-9.588 c 3.916,-0.362 7.719,-1.121 11.361,-2.251 l 2.846,9.198 c 3.376,-1.044 6.693,-2.376 9.859,-3.956 l -4.31,-8.632 c 3.476,-1.739 6.744,-3.83 9.763,-6.225 l 5.999,7.567 c 2.766,-2.193 5.376,-4.629 7.756,-7.239 l -7.127,-6.498 c 2.601,-2.852 4.903,-5.979 6.876,-9.323 l 8.314,4.9 c 1.797,-3.05 3.356,-6.267 4.633,-9.562 l -8.994,-3.485 c 1.385,-3.564 2.419,-7.3 3.05,-11.172 z M 197.391,27.96 c 26.399,0 47.876,21.477 47.876,47.876 0,26.399 -21.477,47.876 -47.876,47.876 -26.399,0 -47.876,-21.477 -47.876,-47.876 0,-26.399 21.477,-47.876 47.876,-47.876 z"
   id="path212" />
		</g>
	</g>
</g>
</svg>
